<svg xmlns="http://www.w3.org/2000/svg" xmlns:xlink="http://www.w3.org/1999/xlink" viewBox="0 0 926 704"><defs><style>.cls-1,.cls-10,.cls-11,.cls-12,.cls-13,.cls-2,.cls-5,.cls-6,.cls-7,.cls-8,.cls-9{fill:none;}.cls-2{stroke:#1d1d1b;stroke-width:0.72px;}.cls-3,.cls-55{fill:#fff;}.cls-4{fill:#f1f1f1;}.cls-10,.cls-11,.cls-12,.cls-13,.cls-4,.cls-5,.cls-55,.cls-6,.cls-7,.cls-72,.cls-73,.cls-8,.cls-9{stroke:#000;stroke-miterlimit:10;stroke-width:2px;}.cls-6{stroke-dasharray:11.67 11.67;}.cls-7{stroke-dasharray:11.92 11.92;}.cls-8{stroke-dasharray:11.71 11.71;}.cls-9{stroke-dasharray:12.78 12.78;}.cls-10{stroke-dasharray:12.55 12.55;}.cls-11{stroke-dasharray:12.53 12.53;}.cls-12{stroke-dasharray:12.21 12.21;}.cls-13{stroke-dasharray:11.8 11.8;}.cls-14,.cls-72{fill:url(#_10_lpi_10_);}.cls-15{clip-path:url(#clip-path);}.cls-16{clip-path:url(#clip-path-3);}.cls-17{clip-path:url(#clip-path-5);}.cls-18{clip-path:url(#clip-path-7);}.cls-19{clip-path:url(#clip-path-9);}.cls-20{clip-path:url(#clip-path-11);}.cls-21{clip-path:url(#clip-path-13);}.cls-22{clip-path:url(#clip-path-15);}.cls-23{clip-path:url(#clip-path-17);}.cls-24{clip-path:url(#clip-path-19);}.cls-25{clip-path:url(#clip-path-21);}.cls-26{clip-path:url(#clip-path-23);}.cls-27{clip-path:url(#clip-path-25);}.cls-28{clip-path:url(#clip-path-27);}.cls-29{clip-path:url(#clip-path-29);}.cls-30{clip-path:url(#clip-path-31);}.cls-31{clip-path:url(#clip-path-33);}.cls-32{clip-path:url(#clip-path-35);}.cls-33{clip-path:url(#clip-path-37);}.cls-34{clip-path:url(#clip-path-39);}.cls-35{clip-path:url(#clip-path-41);}.cls-36{clip-path:url(#clip-path-43);}.cls-37{clip-path:url(#clip-path-45);}.cls-38{clip-path:url(#clip-path-47);}.cls-39{clip-path:url(#clip-path-49);}.cls-40{clip-path:url(#clip-path-51);}.cls-41{clip-path:url(#clip-path-53);}.cls-42{clip-path:url(#clip-path-55);}.cls-43{clip-path:url(#clip-path-57);}.cls-44{clip-path:url(#clip-path-59);}.cls-45{clip-path:url(#clip-path-61);}.cls-46{clip-path:url(#clip-path-63);}.cls-47{clip-path:url(#clip-path-65);}.cls-48{clip-path:url(#clip-path-67);}.cls-49{clip-path:url(#clip-path-69);}.cls-50{clip-path:url(#clip-path-71);}.cls-51{clip-path:url(#clip-path-73);}.cls-52{clip-path:url(#clip-path-75);}.cls-53{clip-path:url(#clip-path-77);}.cls-54{clip-path:url(#clip-path-79);}.cls-56{clip-path:url(#clip-path-81);}.cls-57{clip-path:url(#clip-path-83);}.cls-58{clip-path:url(#clip-path-85);}.cls-59{clip-path:url(#clip-path-87);}.cls-60{clip-path:url(#clip-path-89);}.cls-61{clip-path:url(#clip-path-91);}.cls-62{clip-path:url(#clip-path-93);}.cls-63{clip-path:url(#clip-path-95);}.cls-64{clip-path:url(#clip-path-97);}.cls-65{clip-path:url(#clip-path-99);}.cls-66{clip-path:url(#clip-path-101);}.cls-67{clip-path:url(#clip-path-103);}.cls-68{clip-path:url(#clip-path-105);}.cls-69{clip-path:url(#clip-path-107);}.cls-70{clip-path:url(#clip-path-109);}.cls-71{clip-path:url(#clip-path-111);}.cls-73{fill:#ec1e79;}</style><pattern id="_10_lpi_10_" data-name="10 lpi 10%" width="72" height="72" patternTransform="translate(-9.84 15.36) rotate(-45)" patternUnits="userSpaceOnUse" viewBox="0 0 72 72"><rect class="cls-1" width="72" height="72"/><line class="cls-2" x1="71.75" y1="68.4" x2="144.25" y2="68.4"/><line class="cls-2" x1="71.75" y1="54" x2="144.25" y2="54"/><line class="cls-2" x1="71.75" y1="39.6" x2="144.25" y2="39.6"/><line class="cls-2" x1="71.75" y1="25.2" x2="144.25" y2="25.2"/><line class="cls-2" x1="71.75" y1="10.8" x2="144.25" y2="10.8"/><line class="cls-2" x1="71.75" y1="61.2" x2="144.25" y2="61.2"/><line class="cls-2" x1="71.75" y1="46.8" x2="144.25" y2="46.8"/><line class="cls-2" x1="71.75" y1="32.4" x2="144.25" y2="32.4"/><line class="cls-2" x1="71.75" y1="18" x2="144.25" y2="18"/><line class="cls-2" x1="71.75" y1="3.6" x2="144.25" y2="3.6"/><line class="cls-2" x1="-0.25" y1="68.4" x2="72.25" y2="68.4"/><line class="cls-2" x1="-0.25" y1="54" x2="72.25" y2="54"/><line class="cls-2" x1="-0.25" y1="39.6" x2="72.25" y2="39.6"/><line class="cls-2" x1="-0.25" y1="25.2" x2="72.25" y2="25.2"/><line class="cls-2" x1="-0.25" y1="10.8" x2="72.25" y2="10.8"/><line class="cls-2" x1="-0.25" y1="61.2" x2="72.25" y2="61.2"/><line class="cls-2" x1="-0.25" y1="46.8" x2="72.25" y2="46.8"/><line class="cls-2" x1="-0.25" y1="32.4" x2="72.25" y2="32.4"/><line class="cls-2" x1="-0.25" y1="18" x2="72.25" y2="18"/><line class="cls-2" x1="-0.25" y1="3.6" x2="72.25" y2="3.6"/><line class="cls-2" x1="-72.25" y1="68.4" x2="0.25" y2="68.4"/><line class="cls-2" x1="-72.25" y1="54" x2="0.25" y2="54"/><line class="cls-2" x1="-72.25" y1="39.6" x2="0.25" y2="39.6"/><line class="cls-2" x1="-72.25" y1="25.2" x2="0.25" y2="25.2"/><line class="cls-2" x1="-72.25" y1="10.8" x2="0.25" y2="10.8"/><line class="cls-2" x1="-72.25" y1="61.2" x2="0.25" y2="61.2"/><line class="cls-2" x1="-72.25" y1="46.8" x2="0.25" y2="46.8"/><line class="cls-2" x1="-72.25" y1="32.4" x2="0.25" y2="32.4"/><line class="cls-2" x1="-72.25" y1="18" x2="0.25" y2="18"/><line class="cls-2" x1="-72.25" y1="3.6" x2="0.25" y2="3.6"/></pattern><clipPath id="clip-path"><rect class="cls-1" x="85" y="186.5" width="27" height="27"/></clipPath><clipPath id="clip-path-3"><rect class="cls-1" x="85" y="269.5" width="27" height="27"/></clipPath><clipPath id="clip-path-5"><rect class="cls-1" x="85" y="403.5" width="27" height="27"/></clipPath><clipPath id="clip-path-7"><rect class="cls-1" x="85" y="486.5" width="27" height="27"/></clipPath><clipPath id="clip-path-9"><rect class="cls-1" x="85" y="534" width="27" height="27"/></clipPath><clipPath id="clip-path-11"><rect class="cls-1" x="168" y="534" width="27" height="27"/></clipPath><clipPath id="clip-path-13"><rect class="cls-1" x="302" y="534" width="27" height="27"/></clipPath><clipPath id="clip-path-15"><rect class="cls-1" x="385" y="534" width="27" height="27"/></clipPath><clipPath id="clip-path-17"><rect class="cls-1" x="85" y="581" width="27" height="27"/></clipPath><clipPath id="clip-path-19"><rect class="cls-1" x="168" y="581" width="27" height="27"/></clipPath><clipPath id="clip-path-21"><rect class="cls-1" x="302" y="581" width="27" height="27"/></clipPath><clipPath id="clip-path-23"><rect class="cls-1" x="385" y="581" width="27" height="27"/></clipPath><clipPath id="clip-path-25"><rect class="cls-1" x="85" y="654" width="27" height="27"/></clipPath><clipPath id="clip-path-27"><rect class="cls-1" x="168" y="654" width="27" height="27"/></clipPath><clipPath id="clip-path-29"><rect class="cls-1" x="302" y="654" width="27" height="27"/></clipPath><clipPath id="clip-path-31"><rect class="cls-1" x="385" y="654" width="27" height="27"/></clipPath><clipPath id="clip-path-33"><rect class="cls-1" x="235" y="187" width="27" height="27"/></clipPath><clipPath id="clip-path-35"><rect class="cls-1" x="235" y="270" width="27" height="27"/></clipPath><clipPath id="clip-path-37"><rect class="cls-1" x="235" y="404" width="27" height="27"/></clipPath><clipPath id="clip-path-39"><rect class="cls-1" x="235" y="487" width="27" height="27"/></clipPath><clipPath id="clip-path-41"><rect class="cls-1" x="385" y="187" width="27" height="27"/></clipPath><clipPath id="clip-path-43"><rect class="cls-1" x="432" y="187" width="27" height="27"/></clipPath><clipPath id="clip-path-45"><rect class="cls-1" x="479" y="187" width="27" height="27"/></clipPath><clipPath id="clip-path-47"><rect class="cls-1" x="479" y="237" width="27" height="27"/></clipPath><clipPath id="clip-path-49"><rect class="cls-1" x="479" y="287" width="27" height="27"/></clipPath><clipPath id="clip-path-51"><rect class="cls-1" x="479" y="337" width="27" height="27"/></clipPath><clipPath id="clip-path-53"><rect class="cls-1" x="579" y="337" width="27" height="27"/></clipPath><clipPath id="clip-path-55"><rect class="cls-1" x="529" y="337" width="27" height="27"/></clipPath><clipPath id="clip-path-57"><rect class="cls-1" x="579" y="187" width="27" height="27"/></clipPath><clipPath id="clip-path-59"><rect class="cls-1" x="579" y="237" width="27" height="27"/></clipPath><clipPath id="clip-path-61"><rect class="cls-1" x="579" y="287" width="27" height="27"/></clipPath><clipPath id="clip-path-63"><rect class="cls-1" x="432" y="215" width="27" height="27"/></clipPath><clipPath id="clip-path-65"><rect class="cls-1" x="432" y="259" width="27" height="27"/></clipPath><clipPath id="clip-path-67"><rect class="cls-1" x="432" y="287" width="27" height="27"/></clipPath><clipPath id="clip-path-69"><rect class="cls-1" x="85" y="139.5" width="27" height="27"/></clipPath><clipPath id="clip-path-71"><rect class="cls-1" x="235" y="140" width="27" height="27"/></clipPath><clipPath id="clip-path-73"><rect class="cls-1" x="385" y="140" width="27" height="27"/></clipPath><clipPath id="clip-path-75"><rect class="cls-1" x="385" y="270" width="27" height="27"/></clipPath><clipPath id="clip-path-77"><rect class="cls-1" x="385" y="404" width="27" height="27"/></clipPath><clipPath id="clip-path-79"><rect class="cls-1" x="385" y="487" width="27" height="27"/></clipPath><clipPath id="clip-path-81"><rect class="cls-1" x="85" y="91.5" width="27" height="27"/></clipPath><clipPath id="clip-path-83"><rect class="cls-1" x="85" y="20" width="27" height="27"/></clipPath><clipPath id="clip-path-85"><rect class="cls-1" x="235" y="92" width="27" height="27"/></clipPath><clipPath id="clip-path-87"><rect class="cls-1" x="235" y="20" width="27" height="27"/></clipPath><clipPath id="clip-path-89"><rect class="cls-1" x="385" y="92" width="27" height="27"/></clipPath><clipPath id="clip-path-91"><rect class="cls-1" x="385" y="20" width="27" height="27"/></clipPath><clipPath id="clip-path-93"><rect class="cls-1" x="432" y="387" width="27" height="27"/></clipPath><clipPath id="clip-path-95"><rect class="cls-1" x="432" y="415" width="27" height="27"/></clipPath><clipPath id="clip-path-97"><rect class="cls-1" x="432" y="459" width="27" height="27"/></clipPath><clipPath id="clip-path-99"><rect class="cls-1" x="432" y="487" width="27" height="27"/></clipPath><clipPath id="clip-path-101"><rect class="cls-1" x="479" y="387" width="27" height="27"/></clipPath><clipPath id="clip-path-103"><rect class="cls-1" x="479" y="487" width="27" height="27"/></clipPath><clipPath id="clip-path-105"><rect class="cls-1" x="779" y="387" width="27" height="27"/></clipPath><clipPath id="clip-path-107"><rect class="cls-1" x="779" y="487" width="27" height="27"/></clipPath><clipPath id="clip-path-109"><rect class="cls-1" x="629" y="387" width="27" height="27"/></clipPath><clipPath id="clip-path-111"><rect class="cls-1" x="629" y="487" width="27" height="27"/></clipPath></defs><g id="Layer_2" data-name="Layer 2"><rect class="cls-3" y="-1" width="926" height="705"/></g><g id="Layer_1" data-name="Layer 1"><rect class="cls-4" x="492.5" y="200.5" width="100" height="100"/><rect class="cls-4" x="492.5" y="400.5" width="300" height="100"/><polygon class="cls-4" points="792.83 200.5 692.17 200 692.17 300.5 792.83 300.5 792.83 200.5"/><polyline class="cls-4" points="492.5 -18 492.5 105 792.5 105.5 792.5 -18"/><polyline class="cls-4" points="492.5 768 492.5 594.5 592.5 595 592.5 768"/><polyline class="cls-4" points="692.17 768 692.17 595 792.83 595 792.83 768"/><polyline class="cls-4" points="99 768 99 667 99 595 399 595 399 667 399 768"/><polyline class="cls-4" points="99 -18 98.5 33.5 98.5 105.5 398.5 105.5 398.5 33.5 398.5 -18"/><polyline class="cls-5" points="85 26 85 20 91 20"/><line class="cls-6" x1="102.67" y1="20" x2="400.17" y2="20"/><polyline class="cls-5" points="406 20 412 20 412 26"/><line class="cls-7" x1="412" y1="37.92" x2="412" y2="175.04"/><polyline class="cls-5" points="412 181 412 187 418 187"/><line class="cls-8" x1="429.71" y1="187" x2="494.14" y2="187"/><polyline class="cls-5" points="500 187 506 187 506 193"/><line class="cls-9" x1="506" y1="205.78" x2="506" y2="301.61"/><polyline class="cls-5" points="506 308 506 314 512 314"/><line class="cls-10" x1="524.55" y1="314" x2="643.73" y2="314"/><polyline class="cls-5" points="650 314 656 314 656 320"/><line class="cls-11" x1="656" y1="332.53" x2="656" y2="501.73"/><polyline class="cls-5" points="656 508 656 514 650 514"/><line class="cls-12" x1="637.79" y1="514" x2="424.11" y2="514"/><polyline class="cls-5" points="418 514 412 514 412 520"/><line class="cls-7" x1="412" y1="531.92" x2="412" y2="669.04"/><polyline class="cls-5" points="412 675 412 681 406 681"/><line class="cls-6" x1="394.33" y1="681" x2="96.83" y2="681"/><polyline class="cls-5" points="91 681 85 681 85 675"/><line class="cls-13" x1="85" y1="663.2" x2="85" y2="31.9"/><rect class="cls-14" x="-65" y="-0.5" width="130" height="768.5"/><polygon class="cls-4" points="98.5 200 398.5 200.5 398.5 500.5 98.5 500.5 98.5 200"/><g id="Artwork_1" data-name="Artwork 1"><g class="cls-15"><g class="cls-15"><path d="M104,200a5.5,5.5,0,1,1-5.5-5.5A5.5,5.5,0,0,1,104,200"/></g></g></g><g id="Artwork_1-2" data-name="Artwork 1"><g class="cls-16"><g class="cls-16"><path d="M104,283a5.5,5.5,0,1,1-5.5-5.5A5.5,5.5,0,0,1,104,283"/></g></g></g><g id="Artwork_1-3" data-name="Artwork 1"><g class="cls-17"><g class="cls-17"><path d="M104,417a5.5,5.5,0,1,1-5.5-5.5A5.5,5.5,0,0,1,104,417"/></g></g></g><g id="Artwork_1-4" data-name="Artwork 1"><g class="cls-18"><g class="cls-18"><path d="M104,500a5.5,5.5,0,1,1-5.5-5.5A5.5,5.5,0,0,1,104,500"/></g></g></g><g id="Artwork_1-5" data-name="Artwork 1"><g class="cls-19"><g class="cls-19"><path d="M98.5,542a5.5,5.5,0,1,1-5.5,5.5,5.5,5.5,0,0,1,5.5-5.5"/></g></g></g><g id="Artwork_1-6" data-name="Artwork 1"><g class="cls-20"><g class="cls-20"><path d="M181.5,542a5.5,5.5,0,1,1-5.5,5.5,5.5,5.5,0,0,1,5.5-5.5"/></g></g></g><g id="Artwork_1-7" data-name="Artwork 1"><g class="cls-21"><g class="cls-21"><path d="M315.5,542a5.5,5.5,0,1,1-5.5,5.5,5.5,5.5,0,0,1,5.5-5.5"/></g></g></g><g id="Artwork_1-8" data-name="Artwork 1"><g class="cls-22"><g class="cls-22"><path d="M398.5,542a5.5,5.5,0,1,1-5.5,5.5,5.5,5.5,0,0,1,5.5-5.5"/></g></g></g><g id="Artwork_1-9" data-name="Artwork 1"><g class="cls-23"><g class="cls-23"><path d="M98.5,589a5.5,5.5,0,1,1-5.5,5.5,5.5,5.5,0,0,1,5.5-5.5"/></g></g></g><g id="Artwork_1-10" data-name="Artwork 1"><g class="cls-24"><g class="cls-24"><path d="M181.5,589a5.5,5.5,0,1,1-5.5,5.5,5.5,5.5,0,0,1,5.5-5.5"/></g></g></g><g id="Artwork_1-11" data-name="Artwork 1"><g class="cls-25"><g class="cls-25"><path d="M315.5,589a5.5,5.5,0,1,1-5.5,5.5,5.5,5.5,0,0,1,5.5-5.5"/></g></g></g><g id="Artwork_1-12" data-name="Artwork 1"><g class="cls-26"><g class="cls-26"><path d="M398.5,589a5.5,5.5,0,1,1-5.5,5.5,5.5,5.5,0,0,1,5.5-5.5"/></g></g></g><g id="Artwork_1-13" data-name="Artwork 1"><g class="cls-27"><g class="cls-27"><path d="M98.5,662a5.5,5.5,0,1,1-5.5,5.5,5.5,5.5,0,0,1,5.5-5.5"/></g></g></g><g id="Artwork_1-14" data-name="Artwork 1"><g class="cls-28"><g class="cls-28"><path d="M181.5,662a5.5,5.5,0,1,1-5.5,5.5,5.5,5.5,0,0,1,5.5-5.5"/></g></g></g><g id="Artwork_1-15" data-name="Artwork 1"><g class="cls-29"><g class="cls-29"><path d="M315.5,662a5.5,5.5,0,1,1-5.5,5.5,5.5,5.5,0,0,1,5.5-5.5"/></g></g></g><g id="Artwork_1-16" data-name="Artwork 1"><g class="cls-30"><g class="cls-30"><path d="M398.5,662a5.5,5.5,0,1,1-5.5,5.5,5.5,5.5,0,0,1,5.5-5.5"/></g></g></g><g id="Artwork_1-17" data-name="Artwork 1"><g class="cls-31"><g class="cls-31"><path d="M254,200.5a5.5,5.5,0,1,1-5.5-5.5,5.5,5.5,0,0,1,5.5,5.5"/></g></g></g><g id="Artwork_1-18" data-name="Artwork 1"><g class="cls-32"><g class="cls-32"><path d="M254,283.5a5.5,5.5,0,1,1-5.5-5.5,5.5,5.5,0,0,1,5.5,5.5"/></g></g></g><g id="Artwork_1-19" data-name="Artwork 1"><g class="cls-33"><g class="cls-33"><path d="M254,417.5a5.5,5.5,0,1,1-5.5-5.5,5.5,5.5,0,0,1,5.5,5.5"/></g></g></g><g id="Artwork_1-20" data-name="Artwork 1"><g class="cls-34"><g class="cls-34"><path d="M254,500.5a5.5,5.5,0,1,1-5.5-5.5,5.5,5.5,0,0,1,5.5,5.5"/></g></g></g><g id="Artwork_1-21" data-name="Artwork 1"><g class="cls-35"><g class="cls-35"><path d="M404,200.5a5.5,5.5,0,1,1-5.5-5.5,5.5,5.5,0,0,1,5.5,5.5"/></g></g></g><g id="Artwork_1-22" data-name="Artwork 1"><g class="cls-36"><g class="cls-36"><path d="M451,200.5a5.5,5.5,0,1,1-5.5-5.5,5.5,5.5,0,0,1,5.5,5.5"/></g></g></g><g id="Artwork_1-23" data-name="Artwork 1"><g class="cls-37"><g class="cls-37"><path d="M498,200.5a5.5,5.5,0,1,1-5.5-5.5,5.5,5.5,0,0,1,5.5,5.5"/></g></g></g><g id="Artwork_1-24" data-name="Artwork 1"><g class="cls-38"><g class="cls-38"><path d="M498,250.5a5.5,5.5,0,1,1-5.5-5.5,5.5,5.5,0,0,1,5.5,5.5"/></g></g></g><g id="Artwork_1-25" data-name="Artwork 1"><g class="cls-39"><g class="cls-39"><path d="M498,300.5a5.5,5.5,0,1,1-5.5-5.5,5.5,5.5,0,0,1,5.5,5.5"/></g></g></g><g id="Artwork_1-26" data-name="Artwork 1"><g class="cls-40"><g class="cls-40"><path d="M498,350.5a5.5,5.5,0,1,1-5.5-5.5,5.5,5.5,0,0,1,5.5,5.5"/></g></g></g><g id="Artwork_1-27" data-name="Artwork 1"><g class="cls-41"><g class="cls-41"><path d="M598,350.5a5.5,5.5,0,1,1-5.5-5.5,5.5,5.5,0,0,1,5.5,5.5"/></g></g></g><g id="Artwork_1-28" data-name="Artwork 1"><g class="cls-42"><g class="cls-42"><path d="M548,350.5a5.5,5.5,0,1,1-5.5-5.5,5.5,5.5,0,0,1,5.5,5.5"/></g></g></g><g id="Artwork_1-29" data-name="Artwork 1"><g class="cls-43"><g class="cls-43"><path d="M598,200.5a5.5,5.5,0,1,1-5.5-5.5,5.5,5.5,0,0,1,5.5,5.5"/></g></g></g><g id="Artwork_1-30" data-name="Artwork 1"><g class="cls-44"><g class="cls-44"><path d="M598,250.5a5.5,5.5,0,1,1-5.5-5.5,5.5,5.5,0,0,1,5.5,5.5"/></g></g></g><g id="Artwork_1-31" data-name="Artwork 1"><g class="cls-45"><g class="cls-45"><path d="M598,300.5a5.5,5.5,0,1,1-5.5-5.5,5.5,5.5,0,0,1,5.5,5.5"/></g></g></g><g id="Artwork_1-32" data-name="Artwork 1"><g class="cls-46"><g class="cls-46"><path d="M451,228.5a5.5,5.5,0,1,1-5.5-5.5,5.5,5.5,0,0,1,5.5,5.5"/></g></g></g><g id="Artwork_1-33" data-name="Artwork 1"><g class="cls-47"><g class="cls-47"><path d="M451,272.5a5.5,5.5,0,1,1-5.5-5.5,5.5,5.5,0,0,1,5.5,5.5"/></g></g></g><g id="Artwork_1-34" data-name="Artwork 1"><g class="cls-48"><g class="cls-48"><path d="M451,300.5a5.5,5.5,0,1,1-5.5-5.5,5.5,5.5,0,0,1,5.5,5.5"/></g></g></g><g id="Artwork_1-35" data-name="Artwork 1"><g class="cls-49"><g class="cls-49"><path d="M104,153a5.5,5.5,0,1,1-5.5-5.5A5.5,5.5,0,0,1,104,153"/></g></g></g><g id="Artwork_1-36" data-name="Artwork 1"><g class="cls-50"><g class="cls-50"><path d="M254,153.5a5.5,5.5,0,1,1-5.5-5.5,5.5,5.5,0,0,1,5.5,5.5"/></g></g></g><g id="Artwork_1-37" data-name="Artwork 1"><g class="cls-51"><g class="cls-51"><path d="M404,153.5a5.5,5.5,0,1,1-5.5-5.5,5.5,5.5,0,0,1,5.5,5.5"/></g></g></g><g id="Artwork_1-38" data-name="Artwork 1"><g class="cls-52"><g class="cls-52"><path d="M404,283.5a5.5,5.5,0,1,1-5.5-5.5,5.5,5.5,0,0,1,5.5,5.5"/></g></g></g><g id="Artwork_1-39" data-name="Artwork 1"><g class="cls-53"><g class="cls-53"><path d="M404,417.5a5.5,5.5,0,1,1-5.5-5.5,5.5,5.5,0,0,1,5.5,5.5"/></g></g></g><g id="Artwork_1-40" data-name="Artwork 1"><g class="cls-54"><g class="cls-54"><path d="M404,500.5a5.5,5.5,0,1,1-5.5-5.5,5.5,5.5,0,0,1,5.5,5.5"/></g></g></g><line class="cls-55" x1="98.5" y1="153.5" x2="398.5" y2="153.5"/><line class="cls-55" x1="99" y1="548" x2="399" y2="548"/><g id="Artwork_1-41" data-name="Artwork 1"><g class="cls-56"><g class="cls-56"><path d="M104,105a5.5,5.5,0,1,1-5.5-5.5A5.5,5.5,0,0,1,104,105"/></g></g></g><g id="Artwork_1-42" data-name="Artwork 1"><g class="cls-57"><g class="cls-57"><path d="M104,33.5A5.5,5.5,0,1,1,98.5,28a5.5,5.5,0,0,1,5.5,5.5"/></g></g></g><g id="Artwork_1-43" data-name="Artwork 1"><g class="cls-58"><g class="cls-58"><path d="M254,105.5a5.5,5.5,0,1,1-5.5-5.5,5.5,5.5,0,0,1,5.5,5.5"/></g></g></g><g id="Artwork_1-44" data-name="Artwork 1"><g class="cls-59"><g class="cls-59"><path d="M254,33.5a5.5,5.5,0,1,1-5.5-5.5,5.5,5.5,0,0,1,5.5,5.5"/></g></g></g><g id="Artwork_1-45" data-name="Artwork 1"><g class="cls-60"><g class="cls-60"><path d="M404,105.5a5.5,5.5,0,1,1-5.5-5.5,5.5,5.5,0,0,1,5.5,5.5"/></g></g></g><g id="Artwork_1-46" data-name="Artwork 1"><g class="cls-61"><g class="cls-61"><path d="M404,33.5a5.5,5.5,0,1,1-5.5-5.5,5.5,5.5,0,0,1,5.5,5.5"/></g></g></g><line class="cls-5" x1="445.5" y1="200.5" x2="445.5" y2="300.5"/><g id="Artwork_1-47" data-name="Artwork 1"><g class="cls-62"><g class="cls-62"><path d="M451,400.5a5.5,5.5,0,1,1-5.5-5.5,5.5,5.5,0,0,1,5.5,5.5"/></g></g></g><g id="Artwork_1-48" data-name="Artwork 1"><g class="cls-63"><g class="cls-63"><path d="M451,428.5a5.5,5.5,0,1,1-5.5-5.5,5.5,5.5,0,0,1,5.5,5.5"/></g></g></g><g id="Artwork_1-49" data-name="Artwork 1"><g class="cls-64"><g class="cls-64"><path d="M451,472.5a5.5,5.5,0,1,1-5.5-5.5,5.5,5.5,0,0,1,5.5,5.5"/></g></g></g><g id="Artwork_1-50" data-name="Artwork 1"><g class="cls-65"><g class="cls-65"><path d="M451,500.5a5.5,5.5,0,1,1-5.5-5.5,5.5,5.5,0,0,1,5.5,5.5"/></g></g></g><g id="Artwork_1-51" data-name="Artwork 1"><g class="cls-66"><g class="cls-66"><path d="M498,400.5a5.5,5.5,0,1,1-5.5-5.5,5.5,5.5,0,0,1,5.5,5.5"/></g></g></g><g id="Artwork_1-52" data-name="Artwork 1"><g class="cls-67"><g class="cls-67"><path d="M498,500.5a5.5,5.5,0,1,1-5.5-5.5,5.5,5.5,0,0,1,5.5,5.5"/></g></g></g><g id="Artwork_1-53" data-name="Artwork 1"><g class="cls-68"><g class="cls-68"><path d="M798,400.5a5.5,5.5,0,1,1-5.5-5.5,5.5,5.5,0,0,1,5.5,5.5"/></g></g></g><g id="Artwork_1-54" data-name="Artwork 1"><g class="cls-69"><g class="cls-69"><path d="M798,500.5a5.5,5.5,0,1,1-5.5-5.5,5.5,5.5,0,0,1,5.5,5.5"/></g></g></g><g id="Artwork_1-55" data-name="Artwork 1"><g class="cls-70"><g class="cls-70"><path d="M648,400.5a5.5,5.5,0,1,1-5.5-5.5,5.5,5.5,0,0,1,5.5,5.5"/></g></g></g><g id="Artwork_1-56" data-name="Artwork 1"><g class="cls-71"><g class="cls-71"><path d="M648,500.5a5.5,5.5,0,1,1-5.5-5.5,5.5,5.5,0,0,1,5.5,5.5"/></g></g></g><line class="cls-5" x1="445.5" y1="400.5" x2="445.5" y2="500.5"/><line class="cls-5" x1="492.5" y1="350.5" x2="592.5" y2="350.5"/><line class="cls-5" x1="642.5" y1="200.5" x2="642.5" y2="300.5"/><line class="cls-5" x1="692.17" y1="350.25" x2="792.83" y2="350.5"/><line class="cls-5" x1="492.5" y1="548" x2="592.5" y2="547.5"/><line class="cls-5" x1="692.17" y1="548" x2="792.83" y2="548"/><line class="cls-72" x1="65" y1="-0.5" x2="65" y2="768"/><line class="cls-73" x1="445.5" y1="105.5" x2="445.5" y2="-18"/><line class="cls-73" x1="839.5" y1="105.5" x2="839.5" y2="-18"/><polyline class="cls-4" points="926 105.5 886.5 105.5 886.5 -18 926 -18"/><line class="cls-73" x1="492.5" y1="153" x2="592.5" y2="153.5"/><line class="cls-73" x1="692.17" y1="153.5" x2="792.83" y2="153"/><line class="cls-73" x1="445.5" y1="595" x2="445.5" y2="768"/><line class="cls-73" x1="642.5" y1="595" x2="642.5" y2="768"/><line class="cls-5" x1="886.5" y1="153" x2="926" y2="153"/><polyline class="cls-4" points="926 200.5 886.5 200.5 886.5 500 926 500"/><polyline class="cls-4" points="926 594.5 886.5 594.5 886.5 768 926 768"/><line class="cls-5" x1="886.5" y1="548" x2="926" y2="547.75"/><line class="cls-5" x1="839.5" y1="200.5" x2="839.5" y2="300.5"/><line class="cls-5" x1="839.5" y1="400.5" x2="839.5" y2="500.5"/><line class="cls-5" x1="839.5" y1="595" x2="839.5" y2="768"/></g></svg>