<?xml version="1.0" standalone="no"?>
<!DOCTYPE svg PUBLIC "-//W3C//DTD SVG 20010904//EN"
 "http://www.w3.org/TR/2001/REC-SVG-20010904/DTD/svg10.dtd">
<svg version="1.0" xmlns="http://www.w3.org/2000/svg"
 width="1088.000000pt" height="1088.000000pt" viewBox="0 0 1088.000000 1088.000000"
 preserveAspectRatio="xMidYMid meet">
<metadata>
Created by potrace 1.14, written by Peter Selinger 2001-2017
</metadata>
<g transform="translate(0.000000,1088.000000) scale(0.100000,-0.100000)"
fill="#000000" stroke="none">
<path d="M6027 10874 c-2 -2 -47 -6 -99 -9 -53 -3 -111 -7 -129 -9 -19 -3 -61
-8 -94 -11 -91 -10 -128 -15 -155 -20 -14 -3 -43 -7 -65 -10 -22 -2 -49 -6
-60 -9 -28 -5 -106 -19 -130 -22 -11 -1 -20 -3 -20 -4 0 -2 -20 -6 -65 -14
-19 -4 -48 -11 -65 -16 -16 -5 -43 -12 -60 -15 -38 -8 -60 -13 -60 -15 0 -1
-8 -3 -18 -5 -10 -2 -51 -13 -90 -26 -40 -12 -78 -22 -84 -22 -7 0 -13 -4 -13
-9 0 -4 -3 -7 -7 -6 -13 3 -94 -23 -149 -47 -30 -13 -54 -22 -54 -20 0 11
-294 -131 -397 -191 -85 -51 -183 -114 -201 -131 -6 -6 -21 -15 -33 -18 -11
-4 -18 -9 -15 -12 3 -3 -14 -19 -37 -35 -58 -42 -69 -57 -53 -73 6 -7 32 -36
57 -65 24 -29 49 -58 55 -64 5 -6 47 -54 93 -106 171 -196 204 -231 210 -223
3 5 26 24 51 43 25 19 47 37 50 40 6 7 88 61 115 76 89 50 224 117 295 146
118 48 124 51 135 54 6 2 62 19 125 39 63 20 124 38 135 40 11 2 21 4 23 6 1
1 5 2 10 4 34 9 61 15 82 19 14 3 36 8 50 11 42 10 243 46 275 50 42 4 124 15
165 21 156 23 563 34 790 21 171 -11 336 -27 408 -41 15 -3 45 -8 67 -11 22
-3 56 -8 75 -11 58 -9 222 -44 265 -56 22 -6 47 -12 55 -13 33 -4 251 -72 330
-102 8 -4 17 -7 20 -8 101 -35 318 -143 412 -206 33 -21 63 -39 68 -39 5 0 10
-3 12 -7 2 -5 26 -26 53 -48 120 -95 241 -232 290 -330 11 -22 21 -42 22 -43
1 -4 16 3 138 58 33 15 78 35 100 45 22 10 72 32 110 51 39 18 104 48 146 66
41 18 77 38 78 43 3 14 -32 95 -41 95 -4 0 -8 6 -8 13 0 13 -97 159 -137 207
-46 55 -58 69 -114 127 -32 35 -59 60 -59 58 0 -3 -15 10 -32 29 -63 64 -276
216 -388 277 -25 13 -47 26 -50 29 -7 7 -117 61 -200 98 -138 62 -279 113
-505 182 -152 46 -497 116 -670 135 -27 3 -63 8 -80 10 -16 2 -66 7 -110 10
-44 4 -96 9 -115 11 -43 6 -697 13 -703 8z"/>
<path d="M5948 9495 c-1 -1 -50 -6 -108 -10 -58 -4 -118 -8 -135 -10 -16 -2
-50 -6 -74 -9 -24 -3 -62 -8 -85 -12 -23 -3 -50 -7 -61 -9 -41 -6 -101 -16
-125 -22 -14 -2 -43 -8 -65 -13 -169 -35 -475 -122 -579 -165 -20 -9 -37 -14
-38 -13 -2 1 -14 -5 -28 -12 -14 -8 -27 -15 -30 -15 -29 -7 -261 -123 -318
-159 -20 -12 -41 -25 -47 -27 -17 -7 -159 -102 -173 -116 -7 -7 -16 -13 -20
-13 -4 0 -20 -11 -37 -25 -16 -14 -45 -38 -63 -53 -44 -35 -229 -216 -269
-263 -17 -20 -61 -76 -97 -125 -37 -49 -73 -96 -79 -104 -7 -8 -13 -18 -15
-23 -1 -4 -16 -31 -35 -60 -109 -172 -195 -424 -231 -678 -18 -125 -23 -360
-11 -499 11 -122 18 -176 35 -245 6 -27 14 -59 16 -71 2 -11 14 -52 27 -90 13
-38 25 -75 28 -83 20 -66 179 -350 201 -359 4 -2 8 -8 8 -13 0 -6 4 -15 10
-22 5 -7 37 -45 71 -86 80 -99 214 -228 292 -283 17 -12 37 -27 44 -33 25 -21
39 -31 108 -76 158 -104 279 -167 485 -253 74 -31 143 -61 152 -66 10 -6 22
-10 27 -10 5 0 26 -8 47 -17 22 -9 44 -18 49 -19 6 -2 42 -14 80 -29 39 -14
104 -37 145 -51 41 -14 84 -29 95 -34 11 -5 63 -23 115 -40 52 -17 104 -35
115 -40 11 -4 52 -19 90 -32 39 -13 73 -27 76 -31 3 -5 9 -8 13 -7 4 1 19 -3
34 -8 122 -47 181 -70 272 -109 112 -48 432 -202 440 -212 3 -3 19 -13 35 -21
39 -19 90 -50 195 -119 73 -48 232 -194 280 -256 39 -51 130 -218 130 -239 0
-4 6 -22 14 -39 14 -31 38 -125 42 -159 1 -10 3 -19 4 -20 13 -15 19 -291 8
-373 -17 -132 -67 -291 -115 -367 -13 -21 -21 -38 -18 -38 3 0 1 -6 -5 -12 -5
-7 -36 -49 -68 -93 -57 -78 -96 -120 -182 -198 -49 -45 -163 -127 -177 -127
-6 0 -18 -9 -28 -20 -10 -11 -20 -18 -22 -16 -3 2 -32 -10 -66 -28 -72 -37
-265 -116 -299 -122 -5 -1 -9 -2 -10 -4 -2 -1 -10 -3 -18 -5 -8 -2 -57 -15
-108 -29 -51 -14 -110 -29 -130 -32 -20 -3 -46 -7 -57 -9 -28 -6 -82 -14 -130
-20 -22 -3 -51 -7 -64 -10 -61 -12 -224 -19 -416 -19 -207 0 -308 7 -430 29
-11 2 -39 6 -63 9 -23 4 -70 13 -105 22 -34 8 -73 17 -87 20 -14 3 -45 12 -70
20 -25 9 -52 17 -60 19 -8 2 -42 13 -75 26 -33 13 -65 24 -70 25 -12 2 -164
71 -185 84 -8 5 -31 17 -50 27 -48 23 -249 148 -274 171 -12 9 -37 27 -56 39
-19 12 -47 34 -62 48 -16 14 -28 24 -28 22 0 -7 -89 74 -180 163 -104 102
-215 237 -279 342 l-48 78 -139 -91 c-77 -50 -186 -122 -244 -160 -58 -38
-112 -74 -120 -79 -8 -6 -73 -49 -145 -95 -71 -46 -135 -89 -142 -95 -7 -5
-16 -10 -22 -10 -5 0 -11 -3 -13 -8 -1 -4 -31 -25 -65 -47 l-61 -40 16 -27 c9
-16 20 -28 24 -28 4 0 8 -5 8 -10 0 -12 35 -64 62 -92 10 -10 18 -21 18 -25 0
-5 12 -22 28 -38 15 -17 52 -60 82 -95 58 -70 235 -248 267 -271 11 -8 41 -32
66 -54 100 -86 222 -172 371 -259 99 -59 336 -178 336 -170 0 3 12 -2 28 -10
29 -16 146 -65 171 -72 9 -2 79 -26 156 -52 120 -41 405 -119 500 -137 17 -3
41 -8 55 -10 14 -3 36 -7 50 -10 14 -2 49 -9 79 -15 30 -5 56 -8 59 -5 3 2 12
1 21 -4 9 -5 45 -11 81 -15 36 -3 78 -8 93 -11 31 -6 93 -11 272 -21 285 -17
631 -4 864 32 18 3 45 7 60 9 14 2 26 4 26 5 0 1 9 3 20 4 67 9 214 39 310 62
33 8 70 17 83 20 12 2 59 16 105 30 45 15 87 27 92 29 6 1 24 7 40 14 17 6 44
16 60 22 42 15 65 24 100 40 17 7 32 13 35 14 3 0 27 11 54 23 27 12 52 22 56
22 5 0 10 3 12 8 2 4 39 25 83 47 88 44 183 100 257 151 26 19 50 34 54 34 3
0 11 6 19 13 7 6 36 30 65 52 142 109 315 284 423 429 21 28 46 60 55 71 10
11 28 38 42 60 13 22 27 42 30 45 4 3 10 12 13 20 4 8 18 33 32 55 63 101 172
360 189 448 2 12 11 51 19 87 14 59 21 103 32 195 2 17 7 57 11 90 8 73 9 369
0 445 -17 147 -22 181 -41 270 -3 14 -7 34 -10 45 -9 46 -55 187 -85 261 -55
138 -154 303 -250 418 -53 64 -191 194 -260 246 -40 30 -77 60 -84 65 -16 15
-205 138 -246 161 -19 10 -39 23 -45 27 -12 9 -169 98 -172 98 -7 -2 -139 65
-144 72 -3 5 -10 9 -15 9 -12 1 -39 11 -136 54 -45 20 -92 40 -103 44 -23 8
-54 21 -105 43 -19 8 -84 31 -145 52 -60 20 -119 41 -130 45 -36 14 -78 28
-185 60 -58 18 -112 34 -120 37 -8 4 -19 7 -25 8 -5 2 -37 10 -70 20 -91 25
-128 35 -147 40 -9 2 -25 8 -35 13 -10 5 -23 7 -30 5 -6 -2 -14 1 -18 6 -3 6
-13 11 -21 11 -8 0 -90 27 -182 61 -92 33 -171 61 -177 63 -47 14 -281 130
-335 166 -8 5 -32 21 -53 35 -21 14 -40 25 -42 25 -14 0 -200 182 -225 219 -8
13 -21 29 -28 37 -34 36 -133 254 -115 254 3 0 1 6 -5 13 -18 22 -35 169 -36
307 0 169 18 289 61 400 4 8 7 17 7 20 1 3 16 34 34 69 76 147 238 321 396
425 47 31 88 56 92 56 4 0 15 6 23 13 9 7 36 22 61 32 25 11 47 22 50 25 5 6
120 54 130 55 3 0 10 3 15 7 10 6 137 47 165 53 8 1 40 10 70 19 30 8 71 18
90 21 19 3 44 8 55 12 11 3 31 7 45 8 14 2 39 5 55 8 17 3 50 8 75 11 25 3 56
8 70 11 32 6 246 18 330 18 72 0 275 -11 305 -17 11 -2 42 -7 68 -10 27 -4 59
-9 70 -12 12 -2 38 -7 57 -10 143 -23 360 -101 520 -186 84 -44 266 -162 280
-180 3 -3 23 -21 45 -38 82 -65 210 -195 265 -268 14 -19 34 -46 46 -60 11
-15 42 -62 68 -104 27 -43 50 -78 53 -78 8 0 178 123 181 131 2 5 10 9 18 9 8
0 14 4 14 8 0 5 10 14 23 19 12 6 31 18 42 27 11 10 76 57 145 106 69 49 130
93 135 97 6 5 75 55 155 112 80 57 147 105 149 107 5 5 -23 64 -31 64 -5 0 -8
4 -8 9 0 6 -15 31 -32 57 -18 25 -37 53 -43 62 -45 74 -219 266 -321 353 -100
86 -207 169 -218 169 -4 0 -16 9 -28 20 -12 11 -28 20 -35 20 -7 0 -13 4 -13
8 0 5 -15 16 -32 26 -18 9 -51 28 -73 41 -36 22 -282 147 -295 150 -3 1 -16 6
-30 12 -14 6 -47 20 -75 30 -27 11 -59 24 -70 28 -11 5 -22 9 -25 10 -3 0 -50
16 -105 34 -55 18 -116 37 -135 42 -19 4 -53 13 -75 18 -50 13 -132 31 -165
37 -14 2 -36 7 -50 9 -14 3 -38 8 -55 10 -16 3 -46 8 -65 11 -19 4 -48 8 -65
9 -69 7 -152 16 -180 21 -33 5 -571 14 -577 9z"/>
<path d="M5918 8064 c-2 -1 -25 -5 -53 -8 -27 -4 -63 -9 -80 -12 -47 -7 -226
-64 -267 -85 -21 -11 -38 -16 -38 -12 0 5 -4 3 -8 -3 -4 -5 -32 -23 -62 -38
-30 -16 -62 -33 -70 -40 -8 -6 -31 -20 -50 -30 -47 -25 -165 -114 -216 -162
-73 -70 -123 -148 -148 -233 -8 -28 -13 -51 -11 -51 3 0 0 -12 -5 -26 -21 -53
-29 -177 -18 -254 33 -224 373 -473 793 -579 44 -11 91 -23 105 -25 14 -3 43
-10 65 -16 94 -24 174 -41 225 -48 70 -9 484 -8 530 1 19 4 49 10 65 13 107
22 255 109 362 216 58 57 136 232 149 333 6 42 5 155 0 185 -25 139 -88 294
-166 411 -52 77 -203 229 -229 229 -4 0 -16 9 -26 20 -10 11 -21 17 -26 15 -4
-3 -11 -1 -14 5 -10 16 -164 87 -260 121 -84 29 -142 44 -211 55 -20 3 -46 8
-58 11 -21 5 -274 12 -278 7z"/>
<path d="M4304 4799 c-22 -4 -52 -9 -69 -12 -109 -17 -289 -106 -409 -201 -77
-61 -182 -250 -211 -377 -20 -93 -26 -212 -13 -274 28 -131 45 -194 65 -245 4
-8 7 -18 8 -22 2 -5 4 -10 5 -13 1 -3 3 -8 4 -12 7 -26 71 -147 103 -195 73
-110 116 -155 265 -280 12 -10 27 -18 34 -18 7 0 14 -4 16 -8 11 -28 374 -205
390 -191 2 1 12 -3 24 -9 11 -6 32 -13 45 -15 13 -3 43 -10 67 -16 24 -7 57
-14 75 -16 18 -3 43 -7 57 -11 42 -10 332 -13 390 -3 30 5 71 11 91 14 31 5
69 15 189 50 77 22 367 160 401 191 8 8 21 14 27 14 6 0 17 6 24 13 7 6 36 28
63 47 129 89 244 234 262 330 2 13 8 29 12 35 8 10 19 46 28 95 2 14 8 43 13
65 13 54 12 171 -1 220 -30 114 -130 254 -256 355 -56 46 -133 100 -142 100
-5 0 -11 4 -13 8 -3 8 -205 122 -215 122 -3 0 -35 14 -71 31 -58 27 -155 63
-202 74 -8 2 -49 14 -90 25 -41 12 -82 24 -90 26 -8 2 -53 15 -99 29 -180 54
-338 74 -627 78 -62 1 -129 -1 -150 -4z"/>
<path d="M2134 1671 c-16 -9 -31 -19 -34 -22 -3 -3 -61 -44 -130 -90 -69 -46
-126 -87 -128 -91 -2 -5 -8 -8 -13 -8 -7 0 -132 -84 -181 -122 -15 -12 -11
-20 38 -78 29 -36 57 -72 61 -80 9 -19 205 -213 267 -265 180 -149 382 -280
601 -390 66 -33 123 -64 127 -70 4 -5 8 -7 8 -3 0 4 43 -13 95 -37 52 -25 95
-42 95 -39 0 3 12 -1 28 -10 15 -8 54 -24 87 -36 33 -12 69 -26 80 -30 85 -36
467 -144 620 -175 47 -10 128 -26 150 -30 11 -2 32 -6 48 -9 53 -12 72 -15
112 -20 51 -7 111 -15 150 -21 211 -30 353 -39 690 -39 266 -1 386 4 505 20
19 2 53 6 75 9 22 2 51 7 65 9 14 3 41 7 60 10 19 3 45 8 56 10 12 2 39 7 60
10 22 4 46 8 54 11 8 2 26 6 40 9 46 9 66 14 118 30 29 8 52 13 52 11 0 -2 16
3 35 11 19 8 38 14 42 15 14 0 148 42 158 48 6 4 28 13 50 20 138 46 374 163
535 265 101 65 122 85 107 101 -7 6 -33 40 -57 74 -25 34 -73 99 -107 144 -34
45 -63 88 -63 95 0 6 -4 12 -9 12 -4 0 -21 19 -37 42 -16 24 -35 47 -41 51 -7
4 -13 14 -13 21 0 7 -11 23 -24 35 -20 19 -26 20 -37 8 -44 -43 -286 -173
-419 -224 -36 -14 -74 -29 -85 -34 -12 -6 -30 -12 -40 -14 -11 -2 -21 -4 -22
-5 -2 -2 -6 -3 -10 -5 -5 -1 -15 -5 -23 -8 -28 -11 -228 -64 -275 -72 -16 -3
-52 -10 -80 -15 -27 -5 -63 -12 -80 -14 -16 -2 -49 -7 -72 -11 -23 -4 -59 -8
-80 -10 -21 -2 -63 -6 -93 -10 -84 -9 -389 -20 -410 -16 -3 1 -66 4 -140 6
-127 4 -175 7 -295 21 -27 3 -66 7 -85 9 -37 4 -98 13 -140 20 -45 8 -95 17
-115 20 -75 12 -102 17 -115 21 -8 3 -28 8 -45 11 -36 6 -334 81 -355 90 -18
7 -28 10 -59 17 -12 3 -29 10 -37 17 -8 6 -14 9 -14 5 0 -5 -86 23 -135 44
-11 5 -51 21 -90 36 -426 162 -828 431 -1010 675 l-42 57 -29 -17z"/>
</g>
</svg>
